<svg version="1.0" xmlns="http://www.w3.org/2000/svg" xmlns:xlink="http://www.w3.org/1999/xlink" x="0" y="0" width="2400" height="648.2572051905926" viewBox="31.650578002929688 87.63082550048829 276.69884399414065 74.73834136962891" preserveAspectRatio="xMidYMid meet" color-interpolation-filters="sRGB"><g><defs><linearGradient id="92" x1="0%" y1="0%" x2="100%" y2="0%"><stop offset="0%" stop-color="#fa71cd"></stop> <stop offset="100%" stop-color="#9b59b6"></stop></linearGradient><linearGradient id="93" x1="0%" y1="0%" x2="100%" y2="0%"><stop offset="0%" stop-color="#f9d423"></stop> <stop offset="100%" stop-color="#f83600"></stop></linearGradient><linearGradient id="94" x1="0%" y1="0%" x2="100%" y2="0%"><stop offset="0%" stop-color="#0064d2"></stop> <stop offset="100%" stop-color="#1cb0f6"></stop></linearGradient><linearGradient id="95" x1="0%" y1="0%" x2="100%" y2="0%"><stop offset="0%" stop-color="#f00978"></stop> <stop offset="100%" stop-color="#3f51b1"></stop></linearGradient><linearGradient id="96" x1="0%" y1="0%" x2="100%" y2="0%"><stop offset="0%" stop-color="#7873f5"></stop> <stop offset="100%" stop-color="#ec77ab"></stop></linearGradient><linearGradient id="97" x1="0%" y1="0%" x2="100%" y2="0%"><stop offset="0%" stop-color="#f9d423"></stop> <stop offset="100%" stop-color="#e14fad"></stop></linearGradient><linearGradient id="98" x1="0%" y1="0%" x2="100%" y2="0%"><stop offset="0%" stop-color="#009efd"></stop> <stop offset="100%" stop-color="#2af598"></stop></linearGradient><linearGradient id="99" x1="0%" y1="0%" x2="100%" y2="0%"><stop offset="0%" stop-color="#ffcc00"></stop> <stop offset="100%" stop-color="#00b140"></stop></linearGradient><linearGradient id="100" x1="0%" y1="0%" x2="100%" y2="0%"><stop offset="0%" stop-color="#d51007"></stop> <stop offset="100%" stop-color="#ff8177"></stop></linearGradient><linearGradient id="102" x1="0%" y1="0%" x2="100%" y2="0%"><stop offset="0%" stop-color="#a2b6df"></stop> <stop offset="100%" stop-color="#0c3483"></stop></linearGradient><linearGradient id="103" x1="0%" y1="0%" x2="100%" y2="0%"><stop offset="0%" stop-color="#7ac5d8"></stop> <stop offset="100%" stop-color="#eea2a2"></stop></linearGradient><linearGradient id="104" x1="0%" y1="0%" x2="100%" y2="0%"><stop offset="0%" stop-color="#00ecbc"></stop> <stop offset="100%" stop-color="#007adf"></stop></linearGradient><linearGradient id="105" x1="0%" y1="0%" x2="100%" y2="0%"><stop offset="0%" stop-color="#b88746"></stop> <stop offset="100%" stop-color="#fdf5a6"></stop></linearGradient></defs><g fill="#274E13" class="icon-text-wrapper icon-svg-group iconsvg" transform="translate(34.363311767578125,90.34355926513672)"><g class="iconsvg-imagesvg" transform="translate(0,0)"><g><rect fill="#274E13" fill-opacity="0" stroke-width="2" x="0" y="0" width="60" height="69.31287833279424" class="image-rect"></rect> <svg filter="url(#colors7232017202)" x="0" y="0" width="60" height="69.31287833279424" filtersec="colorsf8889063503" class="image-svg-svg primary" style="overflow: visible;"><svg xmlns="http://www.w3.org/2000/svg" viewBox="0 0.2999999999999998 76.8 88.10001"><path d="M2 23.3l36.4-21 36.4 21v42l-36.4 21L2 65.4V23.3zm9.4 47.5l27 15.6 27-15.6V39.7l-27-15.6-27 15.6v31.1zm8.8 5.1l18.2 10.5 18.2-10.5v-21L38.4 44.5 20.2 54.9v21z" fill="none" stroke="#202121" stroke-width="4" stroke-miterlimit="10"></path></svg></svg> <defs><filter id="colors7232017202"><feColorMatrix type="matrix" values="0 0 0 0 0.21875  0 0 0 0 0.4609375  0 0 0 0 0.11328125  0 0 0 1 0" class="icon-feColorMatrix "></feColorMatrix></filter> <filter id="colorsf8889063503"><feColorMatrix type="matrix" values="0 0 0 0 0.99609375  0 0 0 0 0.99609375  0 0 0 0 0.99609375  0 0 0 1 0" class="icon-fecolormatrix"></feColorMatrix></filter> <filter id="colorsb9066512103"><feColorMatrix type="matrix" values="0 0 0 0 0  0 0 0 0 0  0 0 0 0 0  0 0 0 1 0" class="icon-fecolormatrix"></feColorMatrix></filter></defs></g></g> <g transform="translate(68,19.63124179840088)"><g fill-rule="" class="tp-name iconsvg-namesvg"><g transform="scale(1.1400000000000003)"><g><path d="M9.8 0.17Q7.36 0.17 5.31-0.97 3.27-2.12 2.07-4.15 0.87-6.19 0.87-8.75L0.87-8.75Q0.87-11.3 2.07-13.33 3.27-15.36 5.31-16.51 7.36-17.66 9.8-17.66L9.8-17.66Q12.27-17.66 14.3-16.51 16.34-15.36 17.52-13.33 18.71-11.3 18.71-8.75L18.71-8.75Q18.71-6.19 17.52-4.15 16.34-2.12 14.29-0.97 12.25 0.17 9.8 0.17L9.8 0.17ZM9.8-2.94Q11.37-2.94 12.57-3.65 13.77-4.36 14.44-5.69 15.11-7.01 15.11-8.75L15.11-8.75Q15.11-10.5 14.44-11.81 13.77-13.12 12.57-13.82 11.37-14.52 9.8-14.52L9.8-14.52Q8.23-14.52 7.02-13.82 5.81-13.12 5.14-11.81 4.46-10.5 4.46-8.75L4.46-8.75Q4.46-7.01 5.14-5.69 5.81-4.36 7.02-3.65 8.23-2.94 9.8-2.94L9.8-2.94ZM38.46-14.02Q41-14.02 42.56-12.46 44.12-10.9 44.12-8.11L44.12-8.11 44.12 0 40.63 0 40.63-7.63Q40.63-9.25 39.81-10.11 38.98-10.97 37.56-10.97L37.56-10.97Q36.14-10.97 35.3-10.11 34.47-9.25 34.47-7.63L34.47-7.63 34.47 0 30.98 0 30.98-7.63Q30.98-9.25 30.15-10.11 29.33-10.97 27.91-10.97L27.91-10.97Q26.46-10.97 25.63-10.11 24.79-9.25 24.79-7.63L24.79-7.63 24.79 0 21.3 0 21.3-13.82 24.79-13.82 24.79-12.15Q25.46-13.02 26.52-13.52 27.58-14.02 28.86-14.02L28.86-14.02Q30.48-14.02 31.75-13.33 33.02-12.65 33.72-11.37L33.72-11.37Q34.39-12.57 35.68-13.29 36.96-14.02 38.46-14.02L38.46-14.02ZM55.09-14.02Q57.56-14.02 59.09-12.46 60.61-10.9 60.61-8.11L60.61-8.11 60.61 0 57.12 0 57.12-7.63Q57.12-9.28 56.29-10.16 55.47-11.05 54.05-11.05L54.05-11.05Q52.6-11.05 51.77-10.16 50.93-9.28 50.93-7.63L50.93-7.63 50.93 0 47.44 0 47.44-13.82 50.93-13.82 50.93-12.1Q51.63-12.99 52.71-13.51 53.8-14.02 55.09-14.02L55.09-14.02ZM65.69-15.46Q64.77-15.46 64.16-16.05 63.55-16.64 63.55-17.51L63.55-17.51Q63.55-18.38 64.16-18.97 64.77-19.55 65.69-19.55L65.69-19.55Q66.62-19.55 67.23-18.97 67.84-18.38 67.84-17.51L67.84-17.51Q67.84-16.64 67.23-16.05 66.62-15.46 65.69-15.46L65.69-15.46ZM63.92-13.82L67.42-13.82 67.42 0 63.92 0 63.92-13.82ZM83.55-12.02Q83.55-10.62 82.89-9.4 82.23-8.18 80.82-7.43 79.41-6.68 77.27-6.68L77.27-6.68 74.35-6.68 74.35 0 70.86 0 70.86-17.41 77.27-17.41Q79.29-17.41 80.71-16.71 82.13-16.01 82.84-14.79 83.55-13.57 83.55-12.02L83.55-12.02ZM77.12-9.5Q78.56-9.5 79.26-10.16 79.96-10.82 79.96-12.02L79.96-12.02Q79.96-14.57 77.12-14.57L77.12-14.57 74.35-14.57 74.35-9.5 77.12-9.5ZM85.12-6.96Q85.12-9.05 85.96-10.67 86.8-12.3 88.23-13.17 89.66-14.04 91.43-14.04L91.43-14.04Q92.98-14.04 94.14-13.42 95.3-12.79 96-11.85L96-11.85 96-13.82 99.52-13.82 99.52 0 96 0 96-2.02Q95.32-1.05 94.14-0.41 92.96 0.22 91.41 0.22L91.41 0.22Q89.66 0.22 88.23-0.67 86.8-1.57 85.96-3.2 85.12-4.84 85.12-6.96L85.12-6.96ZM96-6.91Q96-8.18 95.5-9.09 95-10 94.15-10.49 93.3-10.97 92.33-10.97L92.33-10.97Q91.36-10.97 90.54-10.5 89.71-10.03 89.2-9.12 88.69-8.21 88.69-6.96L88.69-6.96Q88.69-5.71 89.2-4.78 89.71-3.84 90.55-3.34 91.38-2.84 92.33-2.84L92.33-2.84Q93.3-2.84 94.15-3.33 95-3.82 95.5-4.73 96-5.64 96-6.91L96-6.91ZM102.03-6.91Q102.03-9.05 102.91-10.66 103.78-12.27 105.33-13.16 106.87-14.04 108.87-14.04L108.87-14.04Q111.44-14.04 113.12-12.76 114.8-11.47 115.38-9.15L115.38-9.15 111.61-9.15Q111.31-10.05 110.6-10.56 109.89-11.07 108.84-11.07L108.84-11.07Q107.35-11.07 106.47-9.99 105.6-8.9 105.6-6.91L105.6-6.91Q105.6-4.94 106.47-3.85 107.35-2.77 108.84-2.77L108.84-2.77Q110.96-2.77 111.61-4.66L111.61-4.66 115.38-4.66Q114.8-2.42 113.11-1.1 111.41 0.22 108.87 0.22L108.87 0.22Q106.87 0.22 105.33-0.66 103.78-1.55 102.91-3.16 102.03-4.76 102.03-6.91L102.03-6.91ZM130.67 0L126.13 0 121.44-5.89 121.44 0 117.95 0 117.95-18.46 121.44-18.46 121.44-7.96 126.08-13.82 130.62-13.82 124.53-6.88 130.67 0ZM131.61-6.96Q131.61-9.05 132.45-10.67 133.29-12.3 134.72-13.17 136.15-14.04 137.92-14.04L137.92-14.04Q139.47-14.04 140.63-13.42 141.79-12.79 142.49-11.85L142.49-11.85 142.49-13.82 146.01-13.82 146.01 0 142.49 0 142.49-2.02Q141.82-1.05 140.63-0.41 139.45 0.22 137.9 0.22L137.9 0.22Q136.15 0.22 134.72-0.67 133.29-1.57 132.45-3.2 131.61-4.84 131.61-6.96L131.61-6.96ZM142.49-6.91Q142.49-8.18 141.99-9.09 141.49-10 140.64-10.49 139.79-10.97 138.82-10.97L138.82-10.97Q137.85-10.97 137.03-10.5 136.2-10.03 135.69-9.12 135.18-8.21 135.18-6.96L135.18-6.96Q135.18-5.71 135.69-4.78 136.2-3.84 137.04-3.34 137.87-2.84 138.82-2.84L138.82-2.84Q139.79-2.84 140.64-3.33 141.49-3.82 141.99-4.73 142.49-5.64 142.49-6.91L142.49-6.91ZM154.83-14.04Q156.38-14.04 157.55-13.43 158.73-12.82 159.4-11.85L159.4-11.85 159.4-13.82 162.92-13.82 162.92 0.1Q162.92 2.02 162.14 3.53 161.37 5.04 159.82 5.92 158.28 6.81 156.08 6.81L156.08 6.81Q153.14 6.81 151.26 5.44 149.37 4.07 149.12 1.7L149.12 1.7 152.59 1.7Q152.86 2.64 153.77 3.2 154.68 3.77 155.98 3.77L155.98 3.77Q157.5 3.77 158.45 2.86 159.4 1.95 159.4 0.1L159.4 0.1 159.4-2.05Q158.73-1.07 157.54-0.42 156.36 0.22 154.83 0.22L154.83 0.22Q153.09 0.22 151.64-0.67 150.2-1.57 149.36-3.2 148.52-4.84 148.52-6.96L148.52-6.96Q148.52-9.05 149.36-10.67 150.2-12.3 151.63-13.17 153.06-14.04 154.83-14.04L154.83-14.04ZM159.4-6.91Q159.4-8.18 158.9-9.09 158.4-10 157.55-10.49 156.71-10.97 155.73-10.97L155.73-10.97Q154.76-10.97 153.94-10.5 153.11-10.03 152.6-9.12 152.09-8.21 152.09-6.96L152.09-6.96Q152.09-5.71 152.6-4.78 153.11-3.84 153.95-3.34 154.78-2.84 155.73-2.84L155.73-2.84Q156.71-2.84 157.55-3.33 158.4-3.82 158.9-4.73 159.4-5.64 159.4-6.91L159.4-6.91ZM179.18-7.21Q179.18-6.46 179.08-5.86L179.08-5.86 168.98-5.86Q169.1-4.36 170.02-3.52 170.95-2.67 172.29-2.67L172.29-2.67Q174.24-2.67 175.06-4.34L175.06-4.34 178.83-4.34Q178.23-2.34 176.53-1.06 174.84 0.22 172.37 0.22L172.37 0.22Q170.37 0.22 168.79-0.66 167.21-1.55 166.32-3.17 165.43-4.79 165.43-6.91L165.43-6.91Q165.43-9.05 166.31-10.67 167.18-12.3 168.75-13.17 170.32-14.04 172.37-14.04L172.37-14.04Q174.34-14.04 175.9-13.19 177.46-12.35 178.32-10.79 179.18-9.23 179.18-7.21L179.18-7.21ZM169-8.21L175.56-8.21Q175.54-9.55 174.59-10.36 173.64-11.17 172.27-11.17L172.27-11.17Q170.97-11.17 170.09-10.39 169.2-9.6 169-8.21L169-8.21Z" transform="translate(-0.8700000047683716, 19.549999237060547)"></path></g> </g></g> </g></g><defs v-gra="od"></defs></g></svg>